<?xml version="1.0" encoding="UTF-8"?>
<svg width="863px" height="134px" viewBox="0 0 863 134" version="1.1" xmlns="http://www.w3.org/2000/svg" xmlns:xlink="http://www.w3.org/1999/xlink">
    <!-- Generator: Sketch 43.1 (39012) - http://www.bohemiancoding.com/sketch -->
    <title>Group 4</title>
    <desc>Created with Sketch.</desc>
    <defs>
        <rect id="path-1" x="-1.13686838e-13" y="21" width="859" height="130"></rect>
        <rect id="path-2" x="0" y="0" width="144" height="126"></rect>
        <filter x="-4.9%" y="-4.0%" width="109.7%" height="111.1%" filterUnits="objectBoundingBox" id="filter-3">
            <feOffset dx="0" dy="2" in="SourceAlpha" result="shadowOffsetOuter1"></feOffset>
            <feGaussianBlur stdDeviation="2" in="shadowOffsetOuter1" result="shadowBlurOuter1"></feGaussianBlur>
            <feColorMatrix values="0 0 0 0 0   0 0 0 0 0   0 0 0 0 0  0 0 0 0.5 0" type="matrix" in="shadowBlurOuter1"></feColorMatrix>
        </filter>
        <rect id="path-4" x="0" y="116" width="144" height="10"></rect>
        <rect id="path-5" x="0" y="92" width="144" height="10"></rect>
        <rect id="path-6" x="0" y="68" width="144" height="10"></rect>
        <rect id="path-7" x="0" y="0" width="144" height="126"></rect>
        <filter x="-4.9%" y="-4.0%" width="109.7%" height="111.1%" filterUnits="objectBoundingBox" id="filter-8">
            <feOffset dx="0" dy="2" in="SourceAlpha" result="shadowOffsetOuter1"></feOffset>
            <feGaussianBlur stdDeviation="2" in="shadowOffsetOuter1" result="shadowBlurOuter1"></feGaussianBlur>
            <feColorMatrix values="0 0 0 0 0   0 0 0 0 0   0 0 0 0 0  0 0 0 0.5 0" type="matrix" in="shadowBlurOuter1"></feColorMatrix>
        </filter>
        <rect id="path-9" x="0" y="116" width="144" height="10"></rect>
        <rect id="path-10" x="0" y="92" width="144" height="10"></rect>
        <rect id="path-11" x="0" y="68" width="144" height="10"></rect>
    </defs>
    <g id="Page-1" stroke="none" stroke-width="1" fill="none" fill-rule="evenodd">
        <g id="Group-4" transform="translate(2.000000, -21.000000)">
            <g id="Rectangle">
                <use fill="#FFFB01" fill-rule="evenodd" xlink:href="#path-1"></use>
                <rect stroke="#B6B6A0" stroke-width="2" x="1" y="22" width="857" height="128"></rect>
            </g>
            <g id="Group" transform="translate(205.000000, 43.000000)" fill="#000000">
                <path d="M0.599609375,53 L0.599609375,2.34570312 L3.93945312,2.34570312 C8.36786068,2.34570312 12.3508938,3.68162727 15.8886719,6.35351562 C18.5852999,8.40691131 20.6881435,11.0787596 22.1972656,14.3691406 C23.4095113,17.0905084 24.015625,19.8860534 24.015625,22.7558594 C24.015625,27.431664 22.5560042,31.6497208 19.6367187,35.4101562 C17.7812407,37.8593872 15.6351033,39.7148374 13.1982422,40.9765625 C10.761381,42.2382876 7.79884557,43.0546856 4.31054687,43.4257812 L4.31054687,53 L0.599609375,53 Z M4.31054687,39.6035156 C5.72071018,39.6035156 7.10611299,39.3808616 8.46679687,38.9355469 C9.82748076,38.4902321 11.1139262,37.8841184 12.3261719,37.1171875 C14.9238411,35.4596271 16.9524667,33.2701959 18.4121094,30.5488281 C19.6738344,28.1738163 20.3046875,25.5638163 20.3046875,22.71875 C20.3046875,17.1770556 18.0657776,12.6992358 13.5878906,9.28515625 C12.9446582,8.79036211 12.2705113,8.3512389 11.5654297,7.96777344 C10.860348,7.58430798 10.1614618,7.25651178 9.46875,6.984375 C8.23176465,6.53906027 6.5123808,6.1803399 4.31054687,5.90820312 L4.31054687,39.6035156 Z M58.0734377,53 L52.1730471,53 L39.1105471,42.0527344 L39.1105471,53 L35.3996096,53 L35.3996096,2.34570312 L38.1457033,2.34570312 C42.475152,2.34570312 46.3344885,3.49608225 49.7238283,5.796875 C52.6678535,7.77605156 54.956242,10.3984212 56.5890627,13.6640625 C57.9497466,16.4596494 58.6300783,19.378891 58.6300783,22.421875 C58.6300783,28.1120076 56.5148651,33.0227658 52.2843752,37.1542969 C50.4041575,38.9602955 47.8312665,40.4941343 44.5656252,41.7558594 L58.0734377,53 Z M39.1105471,39.1210938 C41.2381619,38.8984364 42.9822851,38.5273463 44.3429689,38.0078125 C45.7036528,37.4882787 47.113795,36.6718806 48.5734377,35.5585938 C50.4783951,34.098951 51.9874946,32.2682402 53.1007814,30.0664062 C54.3130271,27.6913944 54.9191408,25.2298304 54.9191408,22.6816406 C54.9191408,19.2923008 53.9171977,16.0885568 51.9132814,13.0703125 C50.428899,10.8437389 48.6847758,9.16764886 46.6808596,8.04199219 C44.6769433,6.91633552 42.153531,6.19270994 39.1105471,5.87109375 L39.1105471,39.1210938 Z M93.9125004,1.67773438 C95.8669372,1.67773438 97.6914633,1.82617039 99.3861332,2.12304688 C101.080803,2.41992336 102.707414,2.88997074 104.266016,3.53320312 C107.33374,4.77018848 110.129285,6.68748701 112.652735,9.28515625 C117.749114,14.5052344 120.297266,20.8261348 120.297266,28.2480469 C120.297266,31.4394691 119.623119,34.5999192 118.274805,37.7294922 C116.926491,40.8590651 115.064856,43.6360556 112.689844,46.0605469 C107.568725,51.1321868 101.40863,53.6679688 94.2093754,53.6679688 C92.551815,53.6679688 90.9004643,53.5071631 89.2552738,53.1855469 C87.6100833,52.8639307 85.983472,52.369144 84.375391,51.7011719 C81.1592291,50.3652277 78.3265751,48.4850382 75.8773441,46.0605469 C70.8057042,41.0631261 68.2699223,34.9525101 68.2699223,27.7285156 C68.2699223,24.3639155 68.9378843,21.0488445 70.2738285,17.7832031 C71.6097727,14.5175618 73.4961471,11.6663533 75.9330082,9.22949219 C78.3698693,6.79263104 81.0479025,4.94336568 83.9671879,3.68164062 C87.0349116,2.34569645 90.3499826,1.67773438 93.9125004,1.67773438 Z M93.9496098,5.38867188 C87.9378609,5.38867188 82.7735246,7.58428794 78.4564457,11.9755859 C74.1393668,16.3668839 71.9808598,21.6054383 71.9808598,27.6914062 C71.9808598,33.8268536 74.1579213,39.0715928 78.5121098,43.4257812 C82.8662982,47.7799697 88.1110374,49.9570312 94.2464848,49.9570312 C100.357192,49.9570312 105.626671,47.7799697 110.055079,43.4257812 C112.108474,41.421865 113.710346,39.0716281 114.860743,36.375 C116.011139,33.6783719 116.586329,30.9446753 116.586329,28.1738281 C116.586329,21.6920249 114.409267,16.2741103 110.055079,11.9199219 C107.902724,9.76756736 105.490639,8.14095603 102.81875,7.04003906 C100.146862,5.9391221 97.1905114,5.38867188 93.9496098,5.38867188 Z M140.401954,54.1875 L128.564063,2.34570312 L132.534766,2.34570312 L140.401954,38.453125 L148.083594,2.34570312 L152.017188,2.34570312 L140.401954,54.1875 Z M178.616016,53 L174.905079,53 L174.905079,18.4511719 L166.369923,18.4511719 L166.369923,53 L162.658985,53 L162.658985,18.4511719 L160.692188,18.4511719 L159.467579,14.7402344 L162.658985,14.7402344 L162.658985,11.734375 C162.658985,9.6314999 162.788867,8.07292174 163.048634,7.05859375 C163.3084,6.04426576 163.809372,5.12891033 164.551563,4.3125 C166.110165,2.53124109 168.13879,1.640625 170.637501,1.640625 C173.457827,1.640625 175.622519,2.69204678 177.131641,4.79492188 C177.675915,5.5865925 178.059375,6.44628442 178.282032,7.37402344 C178.504689,8.30176245 178.616016,9.65624109 178.616016,11.4375 L178.616016,53 Z M174.905079,14.7402344 L174.905079,10.1386719 C174.905079,8.70376887 174.540174,7.54720491 173.810352,6.66894531 C173.080531,5.79068571 172.097142,5.3515625 170.860157,5.3515625 C169.548953,5.3515625 168.472791,5.79068571 167.631641,6.66894531 C166.790491,7.54720491 166.369923,8.71613854 166.369923,10.1757812 L166.369923,14.7402344 L174.905079,14.7402344 Z M215.271485,53 C213.514966,53 211.913094,52.8577488 210.465821,52.5732422 C209.018548,52.2887356 207.589852,51.8496123 206.179688,51.2558594 C201.8255,49.5488196 198.201187,46.8274926 195.306642,43.0917969 C191.793603,38.4902114 190.03711,33.3444295 190.03711,27.6542969 C190.03711,20.9498363 192.313129,15.1979407 196.865235,10.3984375 C199.289727,7.82550797 201.973945,5.89583977 204.91797,4.609375 C206.501311,3.9166632 208.096998,3.38476748 209.705079,3.01367188 C211.585297,2.56835715 213.440747,2.34570312 215.271485,2.34570312 L215.271485,5.9453125 C214.380856,5.9453125 213.502609,6.00097601 212.63672,6.11230469 C211.77083,6.22363337 210.614266,6.49576606 209.166993,6.92871094 C207.71972,7.36165581 206.154957,8.07291172 204.472657,9.0625 C201.305975,10.9674574 198.782562,13.4290214 196.902345,16.4472656 C194.79947,19.9108246 193.748048,23.6464643 193.748048,27.6542969 C193.748048,33.3444295 195.702455,38.2551877 199.611329,42.3867188 C201.714204,44.6132924 204.002593,46.2955672 206.476563,47.4335938 C207.787768,48.002607 209.18554,48.4602847 210.669923,48.8066406 C212.154305,49.1529965 213.688144,49.3261719 215.271485,49.3261719 L215.271485,53 Z M248.772657,53 C247.016138,53 245.414266,52.8577488 243.966993,52.5732422 C242.51972,52.2887356 241.091024,51.8496123 239.680861,51.2558594 C235.326672,49.5488196 231.702359,46.8274926 228.807814,43.0917969 C225.294775,38.4902114 223.538282,33.3444295 223.538282,27.6542969 C223.538282,20.9498363 225.814301,15.1979407 230.366407,10.3984375 C232.790899,7.82550797 235.475117,5.89583977 238.419142,4.609375 C240.002483,3.9166632 241.59817,3.38476748 243.206251,3.01367188 C245.086469,2.56835715 246.941919,2.34570312 248.772657,2.34570312 L248.772657,5.9453125 C247.882028,5.9453125 247.003782,6.00097601 246.137892,6.11230469 C245.272002,6.22363337 244.115438,6.49576606 242.668165,6.92871094 C241.220892,7.36165581 239.656129,8.07291172 237.973829,9.0625 C234.807147,10.9674574 232.283735,13.4290214 230.403517,16.4472656 C228.300642,19.9108246 227.24922,23.6464643 227.24922,27.6542969 C227.24922,33.3444295 229.203627,38.2551877 233.112501,42.3867188 C235.215376,44.6132924 237.503765,46.2955672 239.977736,47.4335938 C241.28894,48.002607 242.686712,48.4602847 244.171095,48.8066406 C245.655477,49.1529965 247.189316,49.3261719 248.772657,49.3261719 L248.772657,53 Z M282.682033,1.67773438 C284.636469,1.67773438 286.460995,1.82617039 288.155665,2.12304688 C289.850335,2.41992336 291.476947,2.88997074 293.035548,3.53320312 C296.103272,4.77018848 298.898817,6.68748701 301.422267,9.28515625 C306.518647,14.5052344 309.066798,20.8261348 309.066798,28.2480469 C309.066798,31.4394691 308.392651,34.5999192 307.044337,37.7294922 C305.696023,40.8590651 303.834388,43.6360556 301.459376,46.0605469 C296.338257,51.1321868 290.178162,53.6679688 282.978908,53.6679688 C281.321347,53.6679688 279.669997,53.5071631 278.024806,53.1855469 C276.379616,52.8639307 274.753004,52.369144 273.144923,51.7011719 C269.928761,50.3652277 267.096107,48.4850382 264.646876,46.0605469 C259.575236,41.0631261 257.039454,34.9525101 257.039454,27.7285156 C257.039454,24.3639155 257.707417,21.0488445 259.043361,17.7832031 C260.379305,14.5175618 262.265679,11.6663533 264.70254,9.22949219 C267.139402,6.79263104 269.817435,4.94336568 272.73672,3.68164062 C275.804444,2.34569645 279.119515,1.67773438 282.682033,1.67773438 Z M282.719142,5.38867188 C276.707393,5.38867188 271.543057,7.58428794 267.225978,11.9755859 C262.908899,16.3668839 260.750392,21.6054383 260.750392,27.6914062 C260.750392,33.8268536 262.927454,39.0715928 267.281642,43.4257812 C271.63583,47.7799697 276.88057,49.9570312 283.016017,49.9570312 C289.126725,49.9570312 294.396203,47.7799697 298.824611,43.4257812 C300.878006,41.421865 302.479878,39.0716281 303.630275,36.375 C304.780671,33.6783719 305.355861,30.9446753 305.355861,28.1738281 C305.355861,21.6920249 303.178799,16.2741103 298.824611,11.9199219 C296.672256,9.76756736 294.260171,8.14095603 291.588283,7.04003906 C288.916394,5.9391221 285.960044,5.38867188 282.719142,5.38867188 Z M338.523048,53 L334.812111,53 L334.812111,14.3691406 L324.087502,7.98632812 L324.087502,53 L320.376564,53 L320.376564,1.45507812 L334.812111,10.1386719 L334.812111,2.34570312 L338.523048,2.34570312 L338.523048,53 Z" id="provaccon"></path>
                <path d="M373.519531,52 L373.519531,48.2890625 L377.935547,48.2890625 C380.483737,48.2890625 382.413405,47.7942758 383.724609,46.8046875 C385.728526,45.3203051 386.730469,43.3040492 386.730469,40.7558594 C386.730469,39.4446549 386.29753,37.8860767 385.431641,36.0800781 L377.490234,18.8613281 C377.143878,18.1438766 376.71094,17.1543032 376.191406,15.8925781 C375.820311,15.0266884 375.566732,14.3834656 375.430664,13.9628906 C375.294596,13.5423156 375.189453,13.0784531 375.115234,12.5712891 C375.041015,12.0641251 375.003906,11.5136748 375.003906,10.9199219 C375.003906,7.5058423 376.376939,4.84636369 379.123047,2.94140625 C380.038416,2.37239299 380.978511,1.95182428 381.943359,1.6796875 C382.908208,1.45703014 384.231762,1.34570312 385.914062,1.34570312 L388.623047,1.34570312 L388.623047,4.9453125 L385.654297,4.9453125 C383.823559,4.9453125 382.363938,5.27929354 381.275391,5.94726562 C380.557939,6.39258035 379.951825,7.07909692 379.457031,8.00683594 C378.962237,8.93457495 378.714844,9.83137588 378.714844,10.6972656 C378.714844,11.9589907 379.098303,13.4309812 379.865234,15.1132812 L388.623047,33.6679688 C389.19206,34.9049541 389.637368,36.1233664 389.958984,37.3232422 C390.280601,38.523118 390.441406,39.6302033 390.441406,40.6445312 C390.441406,44.6028844 388.858089,47.6829317 385.691406,49.8847656 C383.638011,51.2949289 380.929053,52 377.564453,52 L373.519531,52 Z M417.040235,52 L413.329297,52 L413.329297,17.4511719 L404.794141,17.4511719 L404.794141,52 L401.083203,52 L401.083203,17.4511719 L399.116406,17.4511719 L397.891797,13.7402344 L401.083203,13.7402344 L401.083203,10.734375 C401.083203,8.6314999 401.213085,7.07292174 401.472852,6.05859375 C401.732619,5.04426576 402.23359,4.12891033 402.975781,3.3125 C404.534383,1.53124109 406.563009,0.640625 409.061719,0.640625 C411.882046,0.640625 414.046737,1.69204678 415.55586,3.79492188 C416.100133,4.5865925 416.483593,5.44628442 416.70625,6.37402344 C416.928908,7.30176245 417.040235,8.65624109 417.040235,10.4375 L417.040235,52 Z M413.329297,13.7402344 L413.329297,9.13867188 C413.329297,7.70376887 412.964392,6.54720491 412.234571,5.66894531 C411.504749,4.79068571 410.521361,4.3515625 409.284375,4.3515625 C407.973171,4.3515625 406.89701,4.79068571 406.05586,5.66894531 C405.21471,6.54720491 404.794141,7.71613854 404.794141,9.17578125 L404.794141,13.7402344 L413.329297,13.7402344 Z M427.496485,52 L427.496485,48.2890625 L431.9125,48.2890625 C434.46069,48.2890625 436.390358,47.7942758 437.701563,46.8046875 C439.705479,45.3203051 440.707422,43.3040492 440.707422,40.7558594 C440.707422,39.4446549 440.274484,37.8860767 439.408594,36.0800781 L431.467188,18.8613281 C431.120832,18.1438766 430.687894,17.1543032 430.16836,15.8925781 C429.797264,15.0266884 429.543686,14.3834656 429.407618,13.9628906 C429.271549,13.5423156 429.166407,13.0784531 429.092188,12.5712891 C429.017969,12.0641251 428.98086,11.5136748 428.98086,10.9199219 C428.98086,7.5058423 430.353893,4.84636369 433.1,2.94140625 C434.01537,2.37239299 434.955464,1.95182428 435.920313,1.6796875 C436.885161,1.45703014 438.208716,1.34570312 439.891016,1.34570312 L442.6,1.34570312 L442.6,4.9453125 L439.63125,4.9453125 C437.800512,4.9453125 436.340891,5.27929354 435.252344,5.94726562 C434.534893,6.39258035 433.928779,7.07909692 433.433985,8.00683594 C432.939191,8.93457495 432.691797,9.83137588 432.691797,10.6972656 C432.691797,11.9589907 433.075257,13.4309812 433.842188,15.1132812 L442.6,33.6679688 C443.169014,34.9049541 443.614322,36.1233664 443.935938,37.3232422 C444.257554,38.523118 444.41836,39.6302033 444.41836,40.6445312 C444.41836,44.6028844 442.835042,47.6829317 439.66836,49.8847656 C437.614964,51.2949289 434.906007,52 431.541407,52 L427.496485,52 Z" id="sas"></path>
            </g>
            <g id="Group-3" transform="translate(2.000000, 23.000000)">
                <g id="Rectangle-2">
                    <use fill="black" fill-opacity="1" filter="url(#filter-3)" xlink:href="#path-2"></use>
                    <use fill="#FEFEFE" fill-rule="evenodd" xlink:href="#path-2"></use>
                </g>
                <g id="Group-2" transform="translate(28.000000, 5.000000)" fill="#000000">
                    <path d="M0.399598105,113 C0.399598105,113 6.42036679,95.9611591 16.4549813,90.4485929 C26.4895957,84.9360267 33.5138258,70.9040401 34.0155566,69.9017554 C45.0536325,43.8423516 29.9019384,30.0976165 30.5039909,22.7943717 C31.1060433,15.4911269 3.40998245,-2.26274729 0.399598105,0.242964605 C1,4 13.4451517,23.3459894 37.5179399,23.3459894 C39.6351197,23.3459894 41.6419612,23.3620231 44.050171,23.3620231 C44.050171,34.8882978 44.050171,73.9108944 44.050171,83.933742 C25.987865,84.4348844 15.9532505,100.972583 14.9497891,113 C6.42036679,113 0.399598105,113 0.399598105,113 Z" id="Path-3"></path>
                    <path d="M43.949829,112.997293 C43.949829,112.997293 49.9705976,95.958452 60.0052121,90.4458858 C70.0398266,84.9333196 77.0640567,70.901333 77.5657874,69.8990482 C88.6038633,43.8396445 73.4521693,30.0949094 74.0542217,22.7916646 C74.6562742,15.4884198 50.0502309,0.5 43.949829,0.24025748 C46.5502309,5 56.9953826,23.3432823 81.0681707,23.3432823 C83.1853506,23.3432823 85.1921921,23.3593159 87.6004019,23.3593159 C87.6004019,34.8855907 87.6004019,73.9081873 87.6004019,83.9310349 C69.5380959,84.4321772 59.5034814,100.969876 58.5000199,112.997293 C49.9705976,112.997293 43.949829,112.997293 43.949829,112.997293 Z" id="Path-3" transform="translate(65.775115, 56.618775) scale(-1, 1) translate(-65.775115, -56.618775) "></path>
                    <circle id="Oval" cx="43.5" cy="12.5" r="8.5"></circle>
                </g>
                <g id="Rectangle-3">
                    <use fill="#FFFB1B" fill-rule="evenodd" xlink:href="#path-4"></use>
                    <rect stroke="#979797" stroke-width="1" x="0.5" y="116.5" width="143" height="9"></rect>
                </g>
                <g id="Rectangle-3">
                    <use fill="#FFFB1B" fill-rule="evenodd" xlink:href="#path-5"></use>
                    <rect stroke="#979797" stroke-width="1" x="0.5" y="92.5" width="143" height="9"></rect>
                </g>
                <g id="Rectangle-3">
                    <use fill="#FFFB1B" fill-rule="evenodd" xlink:href="#path-6"></use>
                    <rect stroke="#979797" stroke-width="1" x="0.5" y="68.5" width="143" height="9"></rect>
                </g>
            </g>
            <g id="Group-3" transform="translate(713.000000, 23.000000)">
                <g id="Rectangle-2">
                    <use fill="black" fill-opacity="1" filter="url(#filter-8)" xlink:href="#path-7"></use>
                    <use fill="#FEFEFE" fill-rule="evenodd" xlink:href="#path-7"></use>
                </g>
                <g id="Group-2" transform="translate(28.000000, 5.000000)" fill="#000000">
                    <path d="M0.399598105,113 C0.399598105,113 6.42036679,95.9611591 16.4549813,90.4485929 C26.4895957,84.9360267 33.5138258,70.9040401 34.0155566,69.9017554 C45.0536325,43.8423516 29.9019384,30.0976165 30.5039909,22.7943717 C31.1060433,15.4911269 3.40998245,-2.26274729 0.399598105,0.242964605 C1,4 13.4451517,23.3459894 37.5179399,23.3459894 C39.6351197,23.3459894 41.6419612,23.3620231 44.050171,23.3620231 C44.050171,34.8882978 44.050171,73.9108944 44.050171,83.933742 C25.987865,84.4348844 15.9532505,100.972583 14.9497891,113 C6.42036679,113 0.399598105,113 0.399598105,113 Z" id="Path-3"></path>
                    <path d="M43.949829,112.997293 C43.949829,112.997293 49.9705976,95.958452 60.0052121,90.4458858 C70.0398266,84.9333196 77.0640567,70.901333 77.5657874,69.8990482 C88.6038633,43.8396445 73.4521693,30.0949094 74.0542217,22.7916646 C74.6562742,15.4884198 50.0502309,0.5 43.949829,0.24025748 C46.5502309,5 56.9953826,23.3432823 81.0681707,23.3432823 C83.1853506,23.3432823 85.1921921,23.3593159 87.6004019,23.3593159 C87.6004019,34.8855907 87.6004019,73.9081873 87.6004019,83.9310349 C69.5380959,84.4321772 59.5034814,100.969876 58.5000199,112.997293 C49.9705976,112.997293 43.949829,112.997293 43.949829,112.997293 Z" id="Path-3" transform="translate(65.775115, 56.618775) scale(-1, 1) translate(-65.775115, -56.618775) "></path>
                    <circle id="Oval" cx="43.5" cy="12.5" r="8.5"></circle>
                </g>
                <g id="Rectangle-3">
                    <use fill="#FFFB1B" fill-rule="evenodd" xlink:href="#path-9"></use>
                    <rect stroke="#979797" stroke-width="1" x="0.5" y="116.5" width="143" height="9"></rect>
                </g>
                <g id="Rectangle-3">
                    <use fill="#FFFB1B" fill-rule="evenodd" xlink:href="#path-10"></use>
                    <rect stroke="#979797" stroke-width="1" x="0.5" y="92.5" width="143" height="9"></rect>
                </g>
                <g id="Rectangle-3">
                    <use fill="#FFFB1B" fill-rule="evenodd" xlink:href="#path-11"></use>
                    <rect stroke="#979797" stroke-width="1" x="0.5" y="68.5" width="143" height="9"></rect>
                </g>
            </g>
            <path d="M163.278809,136 L163.278809,118.004395 L164.465332,118.004395 C166.038582,118.004395 167.453607,118.478999 168.710449,119.428223 C169.668462,120.157718 170.415525,121.106928 170.95166,122.275879 C171.382326,123.242681 171.597656,124.235835 171.597656,125.255371 C171.597656,126.916512 171.079107,128.415032 170.041992,129.750977 C169.382809,130.621098 168.620366,131.280271 167.754639,131.728516 C166.888912,132.17676 165.836432,132.466796 164.597168,132.598633 L164.597168,136 L163.278809,136 Z M164.597168,131.240723 C165.098147,131.240723 165.59033,131.161622 166.07373,131.003418 C166.557131,130.845214 167.014158,130.629884 167.444824,130.357422 C168.36768,129.768552 169.088376,128.990727 169.606934,128.023926 C170.055178,127.180172 170.279297,126.252935 170.279297,125.242188 C170.279297,123.273428 169.483895,121.682623 167.893066,120.469727 C167.66455,120.293944 167.42505,120.13794 167.174561,120.001709 C166.924071,119.865478 166.675782,119.749024 166.429688,119.652344 C165.990232,119.49414 165.379398,119.3667 164.597168,119.27002 L164.597168,131.240723 Z M187.128984,136 L185.032793,136 L180.392168,132.11084 L180.392168,136 L179.073809,136 L179.073809,118.004395 L180.049395,118.004395 C181.587488,118.004395 182.958568,118.413082 184.162676,119.230469 C185.20858,119.933597 186.02156,120.865229 186.601641,122.025391 C187.085042,123.01856 187.326738,124.055659 187.326738,125.136719 C187.326738,127.158213 186.575281,128.902825 185.072344,130.370605 C184.404372,131.01221 183.490318,131.557127 182.330156,132.005371 L187.128984,136 Z M180.392168,131.069336 C181.148031,130.990234 181.767654,130.858399 182.251055,130.673828 C182.734456,130.489257 183.235427,130.199221 183.753984,129.803711 C184.430746,129.285154 184.966873,128.63477 185.362383,127.852539 C185.793049,127.008785 186.008379,126.134282 186.008379,125.229004 C186.008379,124.024896 185.652426,122.886724 184.940508,121.814453 C184.413162,121.023434 183.793539,120.427981 183.081621,120.028076 C182.369704,119.628172 181.473228,119.371094 180.392168,119.256836 L180.392168,131.069336 Z M203.293125,117.76709 C203.987465,117.76709 204.635651,117.819824 205.237705,117.925293 C205.839759,118.030762 206.417634,118.197753 206.971348,118.42627 C208.061197,118.865725 209.054351,119.54687 209.95084,120.469727 C211.761396,122.324228 212.66666,124.569811 212.66666,127.206543 C212.66666,128.340338 212.427161,129.463129 211.948154,130.574951 C211.469148,131.686773 210.807778,132.673336 209.964024,133.534668 C208.144679,135.336435 205.956224,136.237305 203.398594,136.237305 C202.809724,136.237305 202.22306,136.180176 201.638584,136.065918 C201.054109,135.95166 200.476233,135.77588 199.904942,135.538574 C198.762358,135.063962 197.75602,134.396 196.885899,133.534668 C195.084132,131.759268 194.183262,129.588392 194.183262,127.021973 C194.183262,125.826654 194.420564,124.648932 194.895176,123.48877 C195.369788,122.328607 196.039947,121.315678 196.905674,120.449951 C197.771401,119.584224 198.722807,118.927248 199.759922,118.479004 C200.849771,118.004392 202.027494,117.76709 203.293125,117.76709 Z M203.306309,119.085449 C201.170556,119.085449 199.335857,119.865471 197.802158,121.425537 C196.268459,122.985604 195.501621,124.846669 195.501621,127.008789 C195.501621,129.188487 196.275051,131.05175 197.821934,132.598633 C199.368816,134.145516 201.232079,134.918945 203.411777,134.918945 C205.582687,134.918945 207.454738,134.145516 209.027988,132.598633 C209.757484,131.886715 210.32657,131.051763 210.735264,130.09375 C211.143957,129.135737 211.348301,128.164556 211.348301,127.180176 C211.348301,124.87743 210.574871,122.952644 209.027988,121.405762 C208.263336,120.641109 207.406411,120.063234 206.457188,119.672119 C205.507964,119.281004 204.457682,119.085449 203.306309,119.085449 Z M222.489492,136 L221.171133,136 L221.171133,119.322754 L219.035391,119.322754 L219.035391,118.004395 L224.585684,118.004395 L224.585684,119.322754 L222.489492,119.322754 L222.489492,136 Z M236.451973,136 L231.837715,136 L231.837715,123.752441 L231.152168,123.752441 L230.664375,122.434082 L231.837715,122.434082 L231.837715,118.004395 L236.438789,118.004395 L236.438789,119.322754 L233.156075,119.322754 L233.156075,122.434082 L236.280586,122.434082 L236.768379,123.752441 L233.156075,123.752441 L233.156075,134.681641 L236.451973,134.681641 L236.451973,136 Z M252.391993,136 C251.767966,136 251.19888,135.949463 250.684717,135.848389 C250.170554,135.747314 249.662991,135.59131 249.162012,135.380371 C247.615129,134.773923 246.327545,133.807136 245.299219,132.47998 C244.051166,130.845207 243.427149,129.0171 243.427149,126.995605 C243.427149,124.613758 244.235734,122.570321 245.85293,120.865234 C246.714263,119.951167 247.667866,119.265627 248.71377,118.808594 C249.276273,118.562499 249.843162,118.373536 250.414454,118.241699 C251.082426,118.083495 251.741599,118.004395 252.391993,118.004395 L252.391993,119.283203 C252.075585,119.283203 251.763576,119.302978 251.455957,119.342529 C251.148339,119.38208 250.737454,119.478759 250.223291,119.632568 C249.709129,119.786378 249.153226,120.039061 248.555567,120.390625 C247.430561,121.067386 246.534086,121.941889 245.866114,123.01416 C245.11904,124.244635 244.745508,125.57177 244.745508,126.995605 C244.745508,129.0171 245.439837,130.761711 246.828516,132.229492 C247.57559,133.020512 248.38857,133.618162 249.267481,134.022461 C249.733303,134.22461 250.229881,134.387206 250.757227,134.510254 C251.284573,134.633301 251.82949,134.694824 252.391993,134.694824 L252.391993,136 Z M267.725567,136 C267.10154,136 266.532454,135.949463 266.018291,135.848389 C265.504129,135.747314 264.996565,135.59131 264.495586,135.380371 C262.948704,134.773923 261.661119,133.807136 260.632793,132.47998 C259.38474,130.845207 258.760723,129.0171 258.760723,126.995605 C258.760723,124.613758 259.569309,122.570321 261.186504,120.865234 C262.047837,119.951167 263.001441,119.265627 264.047344,118.808594 C264.609847,118.562499 265.176736,118.373536 265.748028,118.241699 C266.416,118.083495 267.075173,118.004395 267.725567,118.004395 L267.725567,119.283203 C267.409159,119.283203 267.09715,119.302978 266.789532,119.342529 C266.481913,119.38208 266.071028,119.478759 265.556866,119.632568 C265.042703,119.786378 264.4868,120.039061 263.889141,120.390625 C262.764135,121.067386 261.86766,121.941889 261.199688,123.01416 C260.452614,124.244635 260.079082,125.57177 260.079082,126.995605 C260.079082,129.0171 260.773411,130.761711 262.16209,132.229492 C262.909164,133.020512 263.722145,133.618162 264.601055,134.022461 C265.066878,134.22461 265.563455,134.387206 266.090801,134.510254 C266.618148,134.633301 267.163064,134.694824 267.725567,134.694824 L267.725567,136 Z M276.164122,136 L274.845762,136 L274.845762,118.004395 L276.164122,118.004395 L276.164122,136 Z M292.750137,117.76709 C293.444477,117.76709 294.092664,117.819824 294.694717,117.925293 C295.296771,118.030762 295.874646,118.197753 296.42836,118.42627 C297.518209,118.865725 298.511363,119.54687 299.407852,120.469727 C301.218408,122.324228 302.123672,124.569811 302.123672,127.206543 C302.123672,128.340338 301.884173,129.463129 301.405167,130.574951 C300.92616,131.686773 300.26479,132.673336 299.421036,133.534668 C297.601691,135.336435 295.413236,136.237305 292.855606,136.237305 C292.266736,136.237305 291.680072,136.180176 291.095596,136.065918 C290.511121,135.95166 289.933246,135.77588 289.361954,135.538574 C288.21937,135.063962 287.213032,134.396 286.342911,133.534668 C284.541144,131.759268 283.640274,129.588392 283.640274,127.021973 C283.640274,125.826654 283.877576,124.648932 284.352188,123.48877 C284.8268,122.328607 285.496959,121.315678 286.362686,120.449951 C287.228413,119.584224 288.17982,118.927248 289.216934,118.479004 C290.306783,118.004392 291.484506,117.76709 292.750137,117.76709 Z M292.763321,119.085449 C290.627568,119.085449 288.79287,119.865471 287.259171,121.425537 C285.725471,122.985604 284.958633,124.846669 284.958633,127.008789 C284.958633,129.188487 285.732063,131.05175 287.278946,132.598633 C288.825829,134.145516 290.689091,134.918945 292.86879,134.918945 C295.039699,134.918945 296.911751,134.145516 298.485001,132.598633 C299.214496,131.886715 299.783583,131.051763 300.192276,130.09375 C300.600969,129.135737 300.805313,128.164556 300.805313,127.180176 C300.805313,124.87743 300.031883,122.952644 298.485001,121.405762 C297.720348,120.641109 296.863423,120.063234 295.9142,119.672119 C294.964976,119.281004 293.914694,119.085449 292.763321,119.085449 Z M295.136368,114.220703 L293.422501,116.725586 L292.06459,116.725586 L293.75209,114.220703 L295.136368,114.220703 Z M316.020235,136 L314.701876,136 L314.701876,122.275879 L310.891817,120.008301 L310.891817,136 L309.573458,136 L309.573458,117.687988 L314.701876,120.772949 L314.701876,118.004395 L316.020235,118.004395 L316.020235,136 Z M336.654669,136 L336.654669,118.004395 L337.854376,118.004395 C339.032116,118.004395 340.012087,118.136229 340.794317,118.399902 C341.831432,118.760256 342.815797,119.327145 343.747442,120.100586 C345.848039,121.893564 346.898321,124.165514 346.898321,126.916504 C346.898321,127.927251 346.753303,128.878658 346.463263,129.770752 C346.173222,130.662846 345.729379,131.508785 345.13172,132.308594 C344.270387,133.459967 343.184949,134.363034 341.875372,135.017822 C340.565795,135.672611 339.190321,136 337.748907,136 L336.654669,136 Z M337.973028,134.655273 C338.474007,134.655273 338.920048,134.620118 339.311163,134.549805 C339.702278,134.479492 340.082401,134.374024 340.451544,134.233398 C342.16542,133.600583 343.501344,132.497566 344.459356,130.924316 C345.20643,129.693842 345.579962,128.349128 345.579962,126.890137 C345.579962,125.211417 345.07899,123.699714 344.077032,122.35498 C343.496951,121.590328 342.771861,120.931155 341.901739,120.377441 C341.224978,119.937986 340.616341,119.639161 340.075811,119.480957 C339.535281,119.322753 338.834361,119.243652 337.973028,119.243652 L337.973028,134.655273 Z M359.133751,136 L354.519493,136 L354.519493,123.752441 L353.833946,123.752441 L353.346153,122.434082 L354.519493,122.434082 L354.519493,118.004395 L359.120567,118.004395 L359.120567,119.322754 L355.837852,119.322754 L355.837852,122.434082 L358.962364,122.434082 L359.450157,123.752441 L355.837852,123.752441 L355.837852,134.681641 L359.133751,134.681641 L359.133751,136 Z M382.39172,136.421875 L378.186153,118.004395 L379.596798,118.004395 L382.39172,130.832031 L385.120724,118.004395 L386.518185,118.004395 L382.39172,136.421875 Z M399.399611,136 L398.081251,136 L398.081251,123.726074 L395.049025,123.726074 L395.049025,136 L393.730665,136 L393.730665,123.726074 L393.031935,123.726074 L392.596876,122.407715 L393.730665,122.407715 L393.730665,121.339844 C393.730665,120.59277 393.776807,120.039064 393.869093,119.678711 C393.961379,119.318358 394.139355,118.993166 394.403028,118.703125 C394.956742,118.070309 395.677438,117.753906 396.565138,117.753906 C397.567096,117.753906 398.336131,118.127438 398.872267,118.874512 C399.065627,119.155763 399.201856,119.46118 399.280958,119.790771 C399.36006,120.120363 399.399611,120.601559 399.399611,121.234375 L399.399611,136 Z M398.081251,122.407715 L398.081251,120.772949 C398.081251,120.263181 397.951614,119.852296 397.692335,119.540283 C397.433056,119.22827 397.083695,119.072266 396.644239,119.072266 C396.178417,119.072266 395.796096,119.22827 395.497267,119.540283 C395.198437,119.852296 395.049025,120.267576 395.049025,120.786133 L395.049025,122.407715 L398.081251,122.407715 Z M415.85379,136 C415.229764,136 414.660678,135.949463 414.146515,135.848389 C413.632352,135.747314 413.124789,135.59131 412.62381,135.380371 C411.076927,134.773923 409.789342,133.807136 408.761017,132.47998 C407.512964,130.845207 406.888947,129.0171 406.888947,126.995605 C406.888947,124.613758 407.697532,122.570321 409.314728,120.865234 C410.17606,119.951167 411.129664,119.265627 412.175568,118.808594 C412.73807,118.562499 413.304959,118.373536 413.876251,118.241699 C414.544223,118.083495 415.203396,118.004395 415.85379,118.004395 L415.85379,119.283203 C415.537382,119.283203 415.225374,119.302978 414.917755,119.342529 C414.610136,119.38208 414.199252,119.478759 413.685089,119.632568 C413.170926,119.786378 412.615024,120.039061 412.017365,120.390625 C410.892359,121.067386 409.995883,121.941889 409.327911,123.01416 C408.580837,124.244635 408.207306,125.57177 408.207306,126.995605 C408.207306,129.0171 408.901635,130.761711 410.290314,132.229492 C411.037388,133.020512 411.850368,133.618162 412.729279,134.022461 C413.195101,134.22461 413.691678,134.387206 414.219025,134.510254 C414.746371,134.633301 415.291287,134.694824 415.85379,134.694824 L415.85379,136 Z M424.292345,136 L422.973986,136 L422.973986,118.004395 L424.292345,118.004395 L424.292345,136 Z M440.878361,117.76709 C441.5727,117.76709 442.220887,117.819824 442.822941,117.925293 C443.424995,118.030762 444.00287,118.197753 444.556583,118.42627 C445.646433,118.865725 446.639587,119.54687 447.536076,120.469727 C449.346632,122.324228 450.251896,124.569811 450.251896,127.206543 C450.251896,128.340338 450.012396,129.463129 449.53339,130.574951 C449.054384,131.686773 448.393013,132.673336 447.549259,133.534668 C445.729914,135.336435 443.541459,136.237305 440.983829,136.237305 C440.394959,136.237305 439.808295,136.180176 439.22382,136.065918 C438.639344,135.95166 438.061469,135.77588 437.490177,135.538574 C436.347593,135.063962 435.341256,134.396 434.471134,133.534668 C432.669367,131.759268 431.768497,129.588392 431.768497,127.021973 C431.768497,125.826654 432.0058,124.648932 432.480412,123.48877 C432.955023,122.328607 433.625183,121.315678 434.49091,120.449951 C435.356637,119.584224 436.308043,118.927248 437.345158,118.479004 C438.435007,118.004392 439.612729,117.76709 440.878361,117.76709 Z M440.891544,119.085449 C438.755791,119.085449 436.921093,119.865471 435.387394,121.425537 C433.853695,122.985604 433.086857,124.846669 433.086857,127.008789 C433.086857,129.188487 433.860287,131.05175 435.407169,132.598633 C436.954052,134.145516 438.817315,134.918945 440.997013,134.918945 C443.167922,134.918945 445.039974,134.145516 446.613224,132.598633 C447.34272,131.886715 447.911806,131.051763 448.320499,130.09375 C448.729193,129.135737 448.933537,128.164556 448.933537,127.180176 C448.933537,124.87743 448.160107,122.952644 446.613224,121.405762 C445.848572,120.641109 444.991647,120.063234 444.042423,119.672119 C443.0932,119.281004 442.042917,119.085449 440.891544,119.085449 Z M456.620626,136 L456.620626,134.681641 L458.189474,134.681641 C459.094752,134.681641 459.780292,134.505861 460.246115,134.154297 C460.958032,133.62695 461.313986,132.910649 461.313986,132.005371 C461.313986,131.539548 461.160179,130.985843 460.85256,130.344238 L458.031271,124.227051 C457.908223,123.972167 457.754416,123.620608 457.569845,123.172363 C457.438009,122.864745 457.347922,122.636231 457.299582,122.486816 C457.251241,122.337402 457.213888,122.172608 457.187521,121.992432 C457.161154,121.812255 457.14797,121.6167 457.14797,121.405762 C457.14797,120.192865 457.635758,119.24805 458.611349,118.571289 C458.936546,118.36914 459.270527,118.219727 459.613302,118.123047 C459.956077,118.043945 460.426288,118.004395 461.023947,118.004395 L461.986349,118.004395 L461.986349,119.283203 L460.931662,119.283203 C460.281268,119.283203 459.762718,119.401854 459.375998,119.63916 C459.121113,119.797364 458.905784,120.041258 458.730001,120.37085 C458.554219,120.700441 458.46633,121.019041 458.46633,121.32666 C458.46633,121.774905 458.602559,122.297849 458.875021,122.895508 L461.986349,129.487305 C462.188499,129.92676 462.3467,130.359617 462.460958,130.785889 C462.575217,131.21216 462.632345,131.605467 462.632345,131.96582 C462.632345,133.372077 462.069851,134.466305 460.944845,135.248535 C460.215349,135.749514 459.252957,136 458.057638,136 L456.620626,136 Z M486.127619,136 L484.809259,136 L484.809259,123.620605 L481.091486,118.004395 L482.686701,118.004395 L485.481623,122.289062 L488.197443,118.004395 L489.792658,118.004395 L486.127619,123.620605 L486.127619,136 Z M517.572599,136 C516.948573,136 516.379487,135.949463 515.865324,135.848389 C515.351161,135.747314 514.843598,135.59131 514.342619,135.380371 C512.795736,134.773923 511.508151,133.807136 510.479826,132.47998 C509.231773,130.845207 508.607756,129.0171 508.607756,126.995605 C508.607756,124.613758 509.416341,122.570321 511.033537,120.865234 C511.894869,119.951167 512.848473,119.265627 513.894377,118.808594 C514.45688,118.562499 515.023768,118.373536 515.59506,118.241699 C516.263032,118.083495 516.922206,118.004395 517.572599,118.004395 L517.572599,119.283203 C517.256192,119.283203 516.944183,119.302978 516.636564,119.342529 C516.328946,119.38208 515.918061,119.478759 515.403898,119.632568 C514.889736,119.786378 514.333833,120.039061 513.736174,120.390625 C512.611168,121.067386 511.714693,121.941889 511.046721,123.01416 C510.299646,124.244635 509.926115,125.57177 509.926115,126.995605 C509.926115,129.0171 510.620444,130.761711 512.009123,132.229492 C512.756197,133.020512 513.569177,133.618162 514.448088,134.022461 C514.91391,134.22461 515.410487,134.387206 515.937834,134.510254 C516.46518,134.633301 517.010097,134.694824 517.572599,134.694824 L517.572599,136 Z M533.051193,117.76709 C533.745533,117.76709 534.39372,117.819824 534.995773,117.925293 C535.597827,118.030762 536.175702,118.197753 536.729416,118.42627 C537.819265,118.865725 538.812419,119.54687 539.708908,120.469727 C541.519464,122.324228 542.424728,124.569811 542.424728,127.206543 C542.424728,128.340338 542.185229,129.463129 541.706223,130.574951 C541.227216,131.686773 540.565846,132.673336 539.722092,133.534668 C537.902747,135.336435 535.714292,136.237305 533.156662,136.237305 C532.567792,136.237305 531.981128,136.180176 531.396652,136.065918 C530.812177,135.95166 530.234302,135.77588 529.66301,135.538574 C528.520426,135.063962 527.514088,134.396 526.643967,133.534668 C524.8422,131.759268 523.94133,129.588392 523.94133,127.021973 C523.94133,125.826654 524.178632,124.648932 524.653244,123.48877 C525.127856,122.328607 525.798015,121.315678 526.663742,120.449951 C527.529469,119.584224 528.480876,118.927248 529.51799,118.479004 C530.607839,118.004392 531.785562,117.76709 533.051193,117.76709 Z M533.064377,119.085449 C530.928624,119.085449 529.093926,119.865471 527.560226,121.425537 C526.026527,122.985604 525.259689,124.846669 525.259689,127.008789 C525.259689,129.188487 526.033119,131.05175 527.580002,132.598633 C529.126885,134.145516 530.990147,134.918945 533.169846,134.918945 C535.340755,134.918945 537.212806,134.145516 538.786057,132.598633 C539.515552,131.886715 540.084638,131.051763 540.493332,130.09375 C540.902025,129.135737 541.106369,128.164556 541.106369,127.180176 C541.106369,124.87743 540.332939,122.952644 538.786057,121.405762 C538.021404,120.641109 537.164479,120.063234 536.215256,119.672119 C535.266032,119.281004 534.21575,119.085449 533.064377,119.085449 Z M556.321291,136 L555.002932,136 L555.002932,122.275879 L551.192873,120.008301 L551.192873,136 L549.874514,136 L549.874514,117.687988 L555.002932,120.772949 L555.002932,118.004395 L556.321291,118.004395 L556.321291,136 Z M563.428303,136 L563.428303,134.681641 L564.99715,134.681641 C565.902428,134.681641 566.587968,134.505861 567.053791,134.154297 C567.765709,133.62695 568.121662,132.910649 568.121662,132.005371 C568.121662,131.539548 567.967855,130.985843 567.660236,130.344238 L564.838947,124.227051 C564.7159,123.972167 564.562093,123.620608 564.377522,123.172363 C564.245685,122.864745 564.155598,122.636231 564.107258,122.486816 C564.058918,122.337402 564.021565,122.172608 563.995197,121.992432 C563.96883,121.812255 563.955647,121.6167 563.955647,121.405762 C563.955647,120.192865 564.443435,119.24805 565.419025,118.571289 C565.744222,118.36914 566.078203,118.219727 566.420979,118.123047 C566.763754,118.043945 567.233964,118.004395 567.831623,118.004395 L568.794025,118.004395 L568.794025,119.283203 L567.739338,119.283203 C567.088944,119.283203 566.570395,119.401854 566.183674,119.63916 C565.92879,119.797364 565.71346,120.041258 565.537678,120.37085 C565.361896,120.700441 565.274006,121.019041 565.274006,121.32666 C565.274006,121.774905 565.410235,122.297849 565.682697,122.895508 L568.794025,129.487305 C568.996175,129.92676 569.154376,130.359617 569.268635,130.785889 C569.382893,131.21216 569.440022,131.605467 569.440022,131.96582 C569.440022,133.372077 568.877527,134.466305 567.752522,135.248535 C567.023026,135.749514 566.060633,136 564.865314,136 L563.428303,136 Z M578.933264,136 L577.614904,136 L577.614904,119.322754 L575.479162,119.322754 L575.479162,118.004395 L581.029455,118.004395 L581.029455,119.322754 L578.933264,119.322754 L578.933264,136 Z M596.204826,136 L594.108635,136 L589.46801,132.11084 L589.46801,136 L588.149651,136 L588.149651,118.004395 L589.125237,118.004395 C590.66333,118.004395 592.03441,118.413082 593.238518,119.230469 C594.284421,119.933597 595.097402,120.865229 595.677483,122.025391 C596.160883,123.01856 596.40258,124.055659 596.40258,125.136719 C596.40258,127.158213 595.651123,128.902825 594.148186,130.370605 C593.480214,131.01221 592.56616,131.557127 591.405998,132.005371 L596.204826,136 Z M589.46801,131.069336 C590.223873,130.990234 590.843496,130.858399 591.326897,130.673828 C591.810298,130.489257 592.311269,130.199221 592.829826,129.803711 C593.506588,129.285154 594.042715,128.63477 594.438225,127.852539 C594.868891,127.008785 595.084221,126.134282 595.084221,125.229004 C595.084221,124.024896 594.728267,122.886724 594.01635,121.814453 C593.489003,121.023434 592.869381,120.427981 592.157463,120.028076 C591.445545,119.628172 590.54907,119.371094 589.46801,119.256836 L589.46801,131.069336 Z M610.167307,118.004395 L610.167307,132.77002 C610.167307,133.341311 610.118968,133.785155 610.022287,134.101562 C609.943185,134.41797 609.776195,134.743162 609.521311,135.077148 C608.932441,135.85059 608.137038,136.237305 607.13508,136.237305 C606.089177,136.237305 605.263013,135.837406 604.656565,135.037598 C604.225898,134.457517 604.010569,133.684087 604.010569,132.717285 L604.010569,118.004395 L605.328928,118.004395 L605.328928,132.651367 C605.328928,133.363285 605.443185,133.886229 605.671701,134.220215 C606.014477,134.686037 606.480292,134.918945 607.069162,134.918945 C607.789869,134.918945 608.317208,134.602542 608.651194,133.969727 C608.78303,133.714842 608.848948,133.288577 608.848948,132.690918 L608.848948,118.004395 L610.167307,118.004395 Z M626.608303,136 C625.984277,136 625.41519,135.949463 624.901028,135.848389 C624.386865,135.747314 623.879302,135.59131 623.378323,135.380371 C621.83144,134.773923 620.543855,133.807136 619.51553,132.47998 C618.267477,130.845207 617.643459,129.0171 617.643459,126.995605 C617.643459,124.613758 618.452045,122.570321 620.069241,120.865234 C620.930573,119.951167 621.884177,119.265627 622.93008,118.808594 C623.492583,118.562499 624.059472,118.373536 624.630764,118.241699 C625.298736,118.083495 625.957909,118.004395 626.608303,118.004395 L626.608303,119.283203 C626.291895,119.283203 625.979887,119.302978 625.672268,119.342529 C625.364649,119.38208 624.953765,119.478759 624.439602,119.632568 C623.925439,119.786378 623.369537,120.039061 622.771877,120.390625 C621.646872,121.067386 620.750396,121.941889 620.082424,123.01416 C619.33535,124.244635 618.961819,125.57177 618.961819,126.995605 C618.961819,129.0171 619.656148,130.761711 621.044827,132.229492 C621.791901,133.020512 622.604881,133.618162 623.483791,134.022461 C623.949614,134.22461 624.446191,134.387206 624.973537,134.510254 C625.500884,134.633301 626.0458,134.694824 626.608303,134.694824 L626.608303,136 Z M641.941877,136 C641.317851,136 640.748765,135.949463 640.234602,135.848389 C639.720439,135.747314 639.212876,135.59131 638.711897,135.380371 C637.165014,134.773923 635.877429,133.807136 634.849104,132.47998 C633.601051,130.845207 632.977034,129.0171 632.977034,126.995605 C632.977034,124.613758 633.785619,122.570321 635.402815,120.865234 C636.264147,119.951167 637.217751,119.265627 638.263655,118.808594 C638.826158,118.562499 639.393046,118.373536 639.964338,118.241699 C640.63231,118.083495 641.291483,118.004395 641.941877,118.004395 L641.941877,119.283203 C641.62547,119.283203 641.313461,119.302978 641.005842,119.342529 C640.698223,119.38208 640.287339,119.478759 639.773176,119.632568 C639.259013,119.786378 638.703111,120.039061 638.105452,120.390625 C636.980446,121.067386 636.083971,121.941889 635.415998,123.01416 C634.668924,124.244635 634.295393,125.57177 634.295393,126.995605 C634.295393,129.0171 634.989722,130.761711 636.378401,132.229492 C637.125475,133.020512 637.938455,133.618162 638.817366,134.022461 C639.283188,134.22461 639.779765,134.387206 640.307112,134.510254 C640.834458,134.633301 641.379375,134.694824 641.941877,134.694824 L641.941877,136 Z M650.380432,136 L649.062073,136 L649.062073,118.004395 L650.380432,118.004395 L650.380432,136 Z M666.966448,117.76709 C667.660787,117.76709 668.308974,117.819824 668.911028,117.925293 C669.513082,118.030762 670.090957,118.197753 670.64467,118.42627 C671.73452,118.865725 672.727674,119.54687 673.624163,120.469727 C675.434719,122.324228 676.339983,124.569811 676.339983,127.206543 C676.339983,128.340338 676.100483,129.463129 675.621477,130.574951 C675.142471,131.686773 674.4811,132.673336 673.637346,133.534668 C671.818001,135.336435 669.629547,136.237305 667.071917,136.237305 C666.483046,136.237305 665.896382,136.180176 665.311907,136.065918 C664.727431,135.95166 664.149556,135.77588 663.578264,135.538574 C662.43568,135.063962 661.429343,134.396 660.559221,133.534668 C658.757454,131.759268 657.856585,129.588392 657.856585,127.021973 C657.856585,125.826654 658.093887,124.648932 658.568499,123.48877 C659.04311,122.328607 659.71327,121.315678 660.578997,120.449951 C661.444724,119.584224 662.39613,118.927248 663.433245,118.479004 C664.523094,118.004392 665.700817,117.76709 666.966448,117.76709 Z M666.979631,119.085449 C664.843879,119.085449 663.00918,119.865471 661.475481,121.425537 C659.941782,122.985604 659.174944,124.846669 659.174944,127.008789 C659.174944,129.188487 659.948374,131.05175 661.495256,132.598633 C663.042139,134.145516 664.905402,134.918945 667.0851,134.918945 C669.256009,134.918945 671.128061,134.145516 672.701311,132.598633 C673.430807,131.886715 673.999893,131.051763 674.408587,130.09375 C674.81728,129.135737 675.021624,128.164556 675.021624,127.180176 C675.021624,124.87743 674.248194,122.952644 672.701311,121.405762 C671.936659,120.641109 671.079734,120.063234 670.13051,119.672119 C669.181287,119.281004 668.131004,119.085449 666.979631,119.085449 Z M669.352678,114.220703 L667.638811,116.725586 L666.280901,116.725586 L667.968401,114.220703 L669.352678,114.220703 Z M690.236546,136 L688.918186,136 L688.918186,122.275879 L685.108128,120.008301 L685.108128,136 L683.789768,136 L683.789768,117.687988 L688.918186,120.772949 L688.918186,118.004395 L690.236546,118.004395 L690.236546,136 Z" id="protección-de-vacios" fill="#000000"></path>
        </g>
    </g>
</svg>